<svg xmlns="http://www.w3.org/2000/svg" viewBox="0 0 1920 1080">
<defs>
 <linearGradient id="wall" x1="0" y1="0" x2="0" y2="1"><stop stop-color="#343629"/><stop offset=".55" stop-color="#24261c"/><stop offset="1" stop-color="#171812"/></linearGradient>
 <linearGradient id="floor" x1="0" y1="0" x2="0" y2="1"><stop stop-color="#24251d"/><stop offset="1" stop-color="#0e0f0c"/></linearGradient>
 <radialGradient id="lamp" cx="62%" cy="20%" r="42%"><stop stop-color="#b5ad80" stop-opacity=".22"/><stop offset=".45" stop-color="#74775a" stop-opacity=".1"/><stop offset="1" stop-color="#10110d" stop-opacity="0"/></radialGradient>
 <filter id="blur"><feGaussianBlur stdDeviation="24"/></filter>
</defs>
<rect width="1920" height="1080" fill="url(#wall)"/>
<path d="M0 720L1920 650V1080H0z" fill="url(#floor)"/>
<path d="M0 720L1920 650" stroke="#686950" stroke-opacity=".28" stroke-width="5"/>
<path d="M520 0L390 720M1395 0l155 662" stroke="#14150f" stroke-width="28" opacity=".34"/>
<path d="M0 0h1920v1080H0z" fill="url(#lamp)"/>
<rect x="1080" y="90" width="270" height="28" rx="7" fill="#b8af82" opacity=".18" filter="url(#blur)"/>
<rect x="1098" y="86" width="235" height="12" rx="6" fill="#d8cf9b" opacity=".32"/>
<path d="M80 280c180-26 260 40 420-15M1240 340c160-32 290 20 490-20" fill="none" stroke="#81543e" stroke-width="22" stroke-opacity=".11" filter="url(#blur)"/>
<path d="M80 296c180-24 260 37 420-13M1240 354c160-31 290 18 490-19" fill="none" stroke="#86533a" stroke-width="5" stroke-opacity=".25"/>
<g fill="#d8d1b5" opacity=".13"><circle cx="230" cy="185" r="3"/><circle cx="480" cy="420" r="2"/><circle cx="760" cy="150" r="2.5"/><circle cx="1040" cy="510" r="2"/><circle cx="1430" cy="260" r="3"/><circle cx="1700" cy="520" r="2"/></g>
<path d="M0 900c410-70 610 25 930-30s620-15 990 20v190H0z" fill="#080906" opacity=".23"/>
</svg>